# xmcd CD database file
#
# Track frame offsets:
#	183
#	23758
#	56558
#	78358
#	129933
#	151183
#
# Disc length: 2483 seconds
#
# Revision: 0
# Processed by: cddbd v1.5.1PL2 Copyright (c) Steve Scherf et al.
# Submitted via: CDex 1.50Beta5
#
DISCID=3a09b106
DTITLE=Grant Calvin Weston - Dance Romance
DYEAR=1988
DGENRE=Jazz
TTITLE0=Chocolate Rock
TTITLE1=I Can Tell
TTITLE2=Planetarium Citizen
TTITLE3=Preview
TTITLE4=Dance Romance
TTITLE5=House Blues
EXTD=YEAR: 1988
EXTT0=
EXTT1=
EXTT2=
EXTT3=
EXTT4=
EXTT5=
PLAYORDER=
